<?xml version="1.0" encoding="UTF-8"?>
<svg id="Layer_1" data-name="Layer 1" xmlns="http://www.w3.org/2000/svg" viewBox="0 0 27.99 29.46">
  <defs>
    <style>
      .cls-1 {
        fill: #464648;
      }
    </style>
  </defs>
  <path class="cls-1" d="M11.41,2.39H.2c-.11,0-.2,.09-.2,.2v6.18c0,.11,.09,.2,.2,.2H9.72c.11,0,.2,.09,.2,.2V29.26c0,.11,.09,.2,.2,.2h7.75c.11,0,.2-.09,.2-.2V9.05c0-.05-.02-.1-.06-.14L11.55,2.45s-.09-.06-.14-.06Z"/>
  <path class="cls-1" d="M11.83,.34l6.18,6.18s.09,.06,.14,.06h9.64c.11,0,.2-.09,.2-.2V.2c0-.11-.09-.2-.2-.2H11.97c-.18,0-.27,.22-.14,.34Z"/>
</svg>